<?xml version="1.0" encoding="UTF-8" standalone="no"?>
<svg width="38px" height="38px" viewBox="0 0 38 38" version="1.1" xmlns="http://www.w3.org/2000/svg" xmlns:xlink="http://www.w3.org/1999/xlink">
    <!-- Generator: Sketch 3.7.2 (28276) - http://www.bohemiancoding.com/sketch -->
    <title>icn_github</title>
    <desc>Created with Sketch.</desc>
    <defs></defs>
    <g id="Social-Icons" stroke="none" stroke-width="1" fill="none" fill-rule="evenodd">
        <g id="Social-Icons-Copy" transform="translate(-128.000000, -194.000000)">
            <g id="icn_github" transform="translate(128.000000, 194.000000)">
                <circle id="Oval" fill="#A9A9A9" cx="19" cy="19" r="19"></circle>
                <path d="M9,19.2536949 C9,23.7831969 11.8650358,27.6266015 15.8387612,28.9824308 C16.3390835,29.0768478 16.5214095,28.7602359 16.5214095,28.4883147 C16.5214095,28.2447186 16.512815,27.6001647 16.5079039,26.744746 C13.7263575,27.364122 13.1394763,25.3700333 13.1394763,25.3700333 C12.6845821,24.1854137 12.028945,23.8700606 12.028945,23.8700606 C11.1209982,23.2336895 12.097701,23.2469079 12.097701,23.2469079 C13.101415,23.3192943 13.6293625,24.3037497 13.6293625,24.3037497 C14.521962,25.8704438 15.9701341,25.4178713 16.5398263,25.1553918 C16.6306823,24.4925839 16.889131,24.0412703 17.174591,23.7844558 C14.9541422,23.525753 12.6195095,22.6464153 12.6195095,18.7174058 C12.6195095,17.5976193 13.0093312,16.6824031 13.649007,15.9654627 C13.546487,15.7061305 13.2033212,14.6637659 13.7472298,13.2525453 C13.7472298,13.2525453 14.5870346,12.976218 16.4968538,14.3030926 C17.2949139,14.0758622 18.150066,13.9619323 19.0003069,13.9581556 C19.849934,13.9619323 20.7050861,14.0758622 21.504374,14.3030926 C23.4129654,12.976218 24.2515424,13.2525453 24.2515424,13.2525453 C24.7966788,14.6637659 24.453513,15.7061305 24.350993,15.9654627 C24.9918966,16.6824031 25.3786488,17.5976193 25.3786488,18.7174058 C25.3786488,22.655857 23.0409466,23.5226058 20.8131312,23.7769024 C21.1722582,24.0935144 21.4914822,24.7191849 21.4914822,25.6753152 C21.4914822,27.0462512 21.4798183,28.1521899 21.4798183,28.4883147 C21.4798183,28.7627537 21.6596888,29.081254 22.1673778,28.9811719 C26.1374198,27.6228248 29,23.7825675 29,19.2536949 C29,13.5905584 24.5222689,9 18.9990792,9 C13.4777311,9 9,13.5905584 9,19.2536949 Z" id="Shape" fill="#FFFFFF"></path>
            </g>
        </g>
    </g>
</svg>