<?xml version="1.0" encoding="UTF-8" standalone="no"?>
<svg width="38px" height="38px" viewBox="0 0 38 38" version="1.1" xmlns="http://www.w3.org/2000/svg" xmlns:xlink="http://www.w3.org/1999/xlink">
    <!-- Generator: Sketch 3.8.3 (29802) - http://www.bohemiancoding.com/sketch -->
    <title>pinterest-light copy</title>
    <desc>Created with Sketch.</desc>
    <defs></defs>
    <g id="Social-Icons" stroke="none" stroke-width="1" fill="none" fill-rule="evenodd">
        <g id="Social-Icons-Copy" transform="translate(-313.000000, -194.000000)">
            <g id="pinterest-light-copy" transform="translate(313.000000, 194.000000)">
                <rect id="Rectangle" x="0" y="0" width="38" height="38"></rect>
                <circle id="Oval" fill="#A9A9A9" cx="19" cy="19" r="19"></circle>
                <path d="M11.1271705,17.9735298 L18.6449519,10.4211496 C20.5333524,8.52628346 23.5927003,8.52628346 25.479362,10.4211496 C25.9304219,10.895821 25.9102511,11.6649485 25.444237,12.1316335 C24.9726585,12.6063049 24.2092996,12.6063049 23.7352867,12.1316335 L23.6212176,12.0000311 C22.6728441,11.191666 21.2490666,11.2375011 20.3539022,12.136842 L12.6664082,19.8576316 C12.1597048,20.3267473 11.394607,20.3267473 10.9233763,19.8534648 C10.4517978,19.3787934 10.4517978,18.6110548 10.9233763,18.1377724 C10.9870185,18.073881 11.0551817,18.0197122 11.1271705,17.9735298 L11.1271705,17.9735298 Z M28.0076624,18.1377724 C27.5346929,17.6641426 26.7713339,17.6641426 26.2987121,18.1377724 C26.2361132,18.2013165 26.1804698,18.2690275 26.1342161,18.3422943 L18.646343,25.8637705 C17.7021428,26.8103355 16.1726427,26.8103355 15.2284425,25.8637705 L15.1943609,25.8582147 C14.7231302,25.3849322 13.9580324,25.3849322 13.4868017,25.8582147 C13.0152232,26.3314972 13.0152232,27.1006246 13.4868017,27.5725182 C13.5466184,27.6336317 13.6102606,27.6867588 13.6784239,27.7325939 C15.5762142,29.4715512 18.5187108,29.4215492 20.3539022,27.5794629 L28.0076624,19.8534648 C28.4788931,19.3801823 28.4788931,18.6110548 28.0076624,18.1377724 L28.0076624,18.1377724 Z M16.2512391,23.1195654 C16.1792504,23.1671367 16.1114349,23.2213055 16.048836,23.2851969 C15.5762142,23.7584794 15.5762142,24.5276068 16.048836,24.9995004 C16.5204145,25.4731301 17.2851645,25.4731301 17.7918679,25.0050562 L25.479362,17.2832249 C26.4221711,16.3363127 27.9520189,16.3363127 28.8948281,17.2832249 C29.8400717,18.2311788 29.8400717,19.7680448 28.8948281,20.7159987 L21.6051849,28.0718434 C22.5504285,29.0187556 24.0788852,29.0187556 25.0230854,28.0718434 L30.6037784,22.4320384 C32.49044,20.5371722 32.49044,17.4634403 30.6037784,15.5685742 C28.7181601,13.673708 25.6588122,13.673708 23.7704117,15.5685742 L16.2512391,23.1195654 Z M15.2284425,22.4320384 L22.8822027,14.7060403 C23.3534334,14.2313688 23.3534334,13.4636303 22.8822027,12.9900006 C22.4106242,12.5153291 21.6444831,12.5153291 21.1729046,12.9900006 C21.1106535,13.052503 21.05501,13.121603 21.0101475,13.1948697 L13.5208833,20.7159987 C12.5766831,21.6642999 11.0468352,21.6642999 10.1040261,20.7159987 C9.1601736,19.7694337 9.1601736,18.2311788 10.1040261,17.2846138 L17.3936693,9.92876914 C16.4508601,8.98046798 14.919969,8.98046798 13.9771598,9.92876914 L8.3950758,15.5685742 C6.50841417,17.4634403 6.50841417,20.5371722 8.3950758,22.4320384 C10.2820852,24.3269045 13.3428242,24.3269045 15.2284425,22.4320384 L15.2284425,22.4320384 Z" id="squarespace-logo" fill="#FFFFFF"></path>
            </g>
        </g>
    </g>
</svg>