<?xml version="1.0" encoding="UTF-8" standalone="no"?>
<svg width="38px" height="38px" viewBox="0 0 38 38" version="1.1" xmlns="http://www.w3.org/2000/svg" xmlns:xlink="http://www.w3.org/1999/xlink">
    <!-- Generator: Sketch 3.7.2 (28276) - http://www.bohemiancoding.com/sketch -->
    <title>Group 4</title>
    <desc>Created with Sketch.</desc>
    <defs></defs>
    <g id="Social-Icons" stroke="none" stroke-width="1" fill="none" fill-rule="evenodd">
        <g id="Social-Icons-Copy" transform="translate(-55.000000, -194.000000)">
            <g id="Group-4" transform="translate(55.000000, 194.000000)">
                <path d="M19,38 C29.4934102,38 38,29.4934102 38,19 C38,8.50658975 29.4934102,0 19,0 C8.50658975,0 0,8.50658975 0,19 C0,29.4934102 8.50658975,38 19,38 Z" id="Oval" fill="#A9A9A9"></path>
                <path d="M25.1347601,9 L12.8652399,9 C10.7344779,9 9,10.733302 9,12.8652399 L9,25.1347601 C9,27.266698 10.7344779,29 12.8652399,29 L25.1347601,29 C27.2655221,29 29,27.266698 29,25.1347601 L29,12.8652399 C29,10.733302 27.2655221,9 25.1347601,9 L25.1347601,9 Z M26.24365,11.3059737 L26.6857949,11.3036218 L26.6857949,14.6937912 L23.3062088,14.7043744 L23.2944497,11.3142051 L26.24365,11.3059737 L26.24365,11.3059737 Z M16.1460489,16.9468485 C16.7857479,16.060207 17.8252587,15.4793039 19,15.4793039 C20.1747413,15.4793039 21.2142521,16.060207 21.8539511,16.9468485 C22.2714017,17.5253998 22.5206961,18.233302 22.5206961,19 C22.5206961,20.9402634 20.9414393,22.5195202 19,22.5195202 C17.0597366,22.5195202 15.4804798,20.9402634 15.4804798,19 C15.4804798,18.233302 15.7297742,17.5253998 16.1460489,16.9468485 L16.1460489,16.9468485 Z M27.0515052,25.1347601 C27.0515052,26.1919097 26.1919097,27.0515052 25.1347601,27.0515052 L12.8652399,27.0515052 C11.8080903,27.0515052 10.9484948,26.1919097 10.9484948,25.1347601 L10.9484948,16.9468485 L13.9353246,16.9468485 C13.6766228,17.5818438 13.5319849,18.2744591 13.5319849,19 C13.5319849,22.0150517 15.9849483,24.469191 19,24.469191 C22.0162277,24.469191 24.469191,22.0150517 24.469191,19 C24.469191,18.2744591 24.3222013,17.5818438 24.0658514,16.9468485 L27.0515052,16.9468485 L27.0515052,25.1347601 L27.0515052,25.1347601 Z" id="Shape" fill="#FFFFFF"></path>
            </g>
        </g>
    </g>
</svg>