<?xml version="1.0" encoding="UTF-8" standalone="no"?>
<svg width="38px" height="38px" viewBox="0 0 38 38" version="1.1" xmlns="http://www.w3.org/2000/svg" xmlns:xlink="http://www.w3.org/1999/xlink">
    <!-- Generator: Sketch 3.8.3 (29802) - http://www.bohemiancoding.com/sketch -->
    <title>pinterest-light</title>
    <desc>Created with Sketch.</desc>
    <defs></defs>
    <g id="Social-Icons" stroke="none" stroke-width="1" fill="none" fill-rule="evenodd">
        <g id="Social-Icons-Copy" transform="translate(-267.000000, -194.000000)">
            <g id="pinterest-light" transform="translate(267.000000, 194.000000)">
                <rect id="Rectangle" x="0" y="0" width="38" height="38"></rect>
                <circle id="Oval" fill="#A9A9A9" cx="19" cy="19" r="19"></circle>
                <path d="M10.3636364,17.5570205 C10.3636364,19.7757128 11.1987207,21.7492223 12.9885896,22.4847708 C13.2822069,22.6052364 13.5448431,22.4890226 13.6300414,22.1616397 C13.6891873,21.9355896 13.8293069,21.3644411 13.8912693,21.1263444 C13.9771717,20.8032133 13.9440782,20.6898339 13.7067903,20.4078028 C13.1913757,19.7948456 12.8611442,19.0018987 12.8611442,17.8780259 C12.8611442,14.619078 15.2840154,11.7009768 19.1714528,11.7009768 C22.6131833,11.7009768 24.5037411,13.8176276 24.5037411,16.6436081 C24.5037411,20.362451 22.8680742,23.501642 20.4409782,23.501642 C19.0996327,23.501642 18.0962641,22.3855639 18.4180462,21.0172168 C18.8031989,19.3831368 19.5488603,17.6193792 19.5488603,16.4402339 C19.5488603,15.3843886 18.9855656,14.5042814 17.8209538,14.5042814 C16.4507395,14.5042814 15.3487943,15.9307354 15.3487943,17.8418862 C15.3487943,19.0600056 15.7578871,19.8827146 15.7578871,19.8827146 C15.7578871,19.8827146 14.3552833,25.8641843 14.109546,26.9115261 C13.6201837,28.9977063 14.0363177,31.5544108 14.0715236,31.8123488 C14.091943,31.9654109 14.2869838,32.0022592 14.3757027,31.886754 C14.502444,31.7202281 16.1338863,29.6921548 16.6901397,27.6662075 C16.846454,27.0922245 17.5907071,24.1209767 17.5907071,24.1209767 C18.036414,24.9755736 19.3376247,25.7281291 20.7212173,25.7281291 C24.8417179,25.7281291 27.6363636,21.9483448 27.6363636,16.888791 C27.6363636,13.0629463 24.4164304,9.5 19.5228079,9.5 C13.4342965,9.5 10.3636364,13.8934501 10.3636364,17.5570205 Z" id="Shape" fill="#FFFFFF"></path>
            </g>
        </g>
    </g>
</svg>